#!OML:ASF H:\Terrain\Walking\May29\JustinRory\Justin.ASF
:FULLY-SPECIFIED
:DEGREES
49
root 7.84954 17.6329 -16.0418 1.30873 -3.13927 -0.929499
lowerback 0.734572 -0.50451 -1.33464
upperback 0.368249 -0.680311 2.70192
thorax 0.0141252 -0.345683 3.52879
lowerneck -14.6756 -5.61377 -12.4019
upperneck 12.0476 -6.08776 7.28018
head 6.68737 -2.93363 3.73316
rclavicle 1.63749e-014 -6.36111e-015
rhumerus 4.63911 10.0802 -59.794
rradius 103.571
rwrist 9.43222
rhand -21.3338 31.8792
rfingers 7.12502
rthumb 5.05209 1.95939
lclavicle 1.63749e-014 -6.36111e-015
lhumerus 2.12465 -5.45724 60.4858
lradius 100.694
lwrist -16.5847
lhand -1.70437 38.4978
lfingers 7.12502
lthumb 23.9569 67.0231
rfemur -5.95627 -3.04787 18.3791
rtibia 18.8813
rfoot -11.9644 -9.11287
rtoes 5.73181
lfemur -5.96172 2.65146 -15.7407
ltibia 20.9347
lfoot -14.0327 3.95199
ltoes -16.3087
50
root 7.87118 17.6335 -16.0372 1.34181 -3.31865 -0.769569
lowerback 0.346827 -0.494515 -1.59545
upperback 0.567918 -0.67055 2.72958
thorax 0.439086 -0.349805 3.69996
lowerneck -14.8119 -5.5109 -12.4678
upperneck 11.8828 -5.91212 7.30076
head 6.64206 -2.84553 3.76815
rclavicle 1.33683e-014 -3.97569e-015
rhumerus 5.06694 10.0898 -59.6809
rradius 103.599
rwrist 9.41859
rhand -21.0845 31.8075
rfingers 7.12502
rthumb 5.29273 1.89362
lclavicle 1.33683e-014 -3.97569e-015
lhumerus 2.35833 -5.24539 60.485
lradius 100.802
lwrist -16.3368
lhand -2.13499 38.8797
lfingers 7.12502
lthumb 23.5439 67.4586
rfemur -6.00122 -3.12344 18.1026
rtibia 18.8221
rfoot -11.8455 -8.91665
rtoes 5.53008
lfemur -5.95563 2.75667 -16.0064
ltibia 20.9228
lfoot -14.1331 3.95097
ltoes -15.1171
51
root 7.89149 17.6335 -16.0348 1.40333 -3.47844 -0.873883
lowerback 0.173302 -0.498363 -1.48564
upperback 0.625366 -0.676602 2.78924
thorax 0.595238 -0.355414 3.69767
lowerneck -15.1027 -5.49987 -12.5841
upperneck 11.9246 -5.83675 7.31065
head 6.70076 -2.80836 3.79432
rclavicle 1.03368e-014 -3.26007e-014
rhumerus 5.37354 10.1436 -59.6697
rradius 103.543
rwrist 9.72444
rhand -20.2138 31.0213
rfingers 7.12502
rthumb 6.13342 1.13008
lclavicle 1.03368e-014 -3.26007e-014
lhumerus 2.48753 -5.11097 60.4219
lradius 100.837
lwrist -16.1727
lhand -2.6699 39.4027
lfingers 7.12502
lthumb 23.0307 68.0466
rfemur -6.14405 -3.27321 18.1216
rtibia 18.8869
rfoot -11.7676 -8.62393
rtoes 5.23068
lfemur -5.94392 2.79128 -15.9744
ltibia 20.8737
lfoot -14.1854 3.98929
ltoes -14.2188
52
root 7.90422 17.6322 -16.0389 1.4271 -3.48735 -0.923599
lowerback 0.259968 -0.489649 -1.42673
upperback 0.53203 -0.663468 2.7654
thorax 0.448884 -0.345338 3.64095
lowerneck -15.3392 -5.49498 -12.4758
upperneck 12.1071 -5.81275 7.20093
head 6.79024 -2.79838 3.74042
rclavicle -9.6659e-015 2.62396e-014
rhumerus 5.3107 10.1826 -59.7958
rradius 103.472
rwrist 10.1542
rhand -18.5714 29.2687
rfingers 7.12502
rthumb 7.7188 -0.570427
lclavicle -9.6659e-015 2.62396e-014
lhumerus 2.4196 -5.1327 60.504
lradius 100.751
lwrist -16.298
lhand -2.99561 39.5106
lfingers 7.12502
lthumb 22.7182 68.1932
rfemur -6.23277 -3.31572 18.1357
rtibia 18.9604
rfoot -11.7723 -8.57557
rtoes 4.84383
lfemur -6.01426 2.916 -15.9541
ltibia 20.9003
lfoot -14.13 3.88148
ltoes -14.4222
53
root 7.91235 17.6322 -16.0484 1.50281 -3.28677 -0.682344
lowerback 0.276393 -0.51607 -1.68952
upperback 0.419793 -0.696621 2.61283
thorax 0.328278 -0.359428 3.63236
lowerneck -15.3425 -5.47077 -12.3588
upperneck 12.2257 -5.82143 7.26767
head 6.82831 -2.79309 3.74332
rclavicle -2.48481e-017 -1.74931e-014
rhumerus 5.11773 10.1872 -59.945
rradius 103.433
rwrist 10.3863
rhand -21.7793 32.4701
rfingers 7.12502
rthumb 4.62191 2.5405
lclavicle -2.48481e-017 -1.74931e-014
lhumerus 2.52083 -5.27419 60.496
lradius 100.739
lwrist -16.3166
lhand -2.848 39.4112
lfingers 7.12502
lthumb 22.8598 68.0763
rfemur -6.32628 -3.36845 17.8731
rtibia 18.9751
rfoot -11.7454 -8.75395
rtoes 4.11527
lfemur -6.26658 2.90129 -16.2499
ltibia 20.9946
lfoot -14.027 3.80108
ltoes -14.9619
